STARTFONT 2.1
FONT -B&H-Lucida Bright-Medium-I-Normal--12-120-72-72-P-68-ISO8859-1
SIZE 12 72 72
FONTBOUNDINGBOX 19 15 -6 -3

STARTPROPERTIES 22
FONTNAME_REGISTRY "-"
FOUNDRY "B&H"
FAMILY_NAME "Lucida Bright"
WEIGHT_NAME "Medium"
SLANT "I"
SETWIDTH_NAME "Normal"
ADD_STYLE_NAME ""
PIXEL_SIZE 12
POINT_SIZE 120
RESOLUTION_X 72
RESOLUTION_Y 72
SPACING "P"
CHARSET_REGISTRY "ISO8859"
CHARSET_ENCODING "1"
FULL_NAME "LucidaBright-Italic"
AVERAGE_WIDTH 68
WEIGHT 10
X_HEIGHT 6
QUAD_WIDTH 7
DEFAULT_CHAR 32
FONT_DESCENT 3
FONT_ASCENT 12
ENDPROPERTIES

CHARS 190

STARTCHAR space
ENCODING 32
SWIDTH 333 0
DWIDTH 4 0
BBX 1 1 0 0
BITMAP
00
ENDCHAR

STARTCHAR exclam
ENCODING 33
SWIDTH 265 0
DWIDTH 3 0
BBX 3 9 1 0
BITMAP
20
60
60
40
40
40
40
00
80
ENDCHAR

STARTCHAR quotedbl
ENCODING 34
SWIDTH 377 0
DWIDTH 5 0
BBX 3 3 2 6
BITMAP
A0
A0
A0
ENDCHAR

STARTCHAR numbersign
ENCODING 35
SWIDTH 608 0
DWIDTH 7 0
BBX 7 9 1 0
BITMAP
0A
1A
14
7E
28
FE
50
50
B0
ENDCHAR

STARTCHAR dollar
ENCODING 36
SWIDTH 608 0
DWIDTH 7 0
BBX 6 10 2 -1
BITMAP
3C
54
50
20
10
28
28
A8
F0
40
ENDCHAR

STARTCHAR percent
ENCODING 37
SWIDTH 759 0
DWIDTH 9 0
BBX 9 9 1 0
BITMAP
3180
5300
5600
5400
7F00
1500
2500
4500
C600
ENDCHAR

STARTCHAR ampersand
ENCODING 38
SWIDTH 727 0
DWIDTH 9 0
BBX 9 9 1 0
BITMAP
1C00
1200
1400
1C00
7000
DB80
8A00
C400
7F00
ENDCHAR

STARTCHAR quoteright
ENCODING 39
SWIDTH 265 0
DWIDTH 3 0
BBX 2 4 2 5
BITMAP
40
C0
40
80
ENDCHAR

STARTCHAR parenleft
ENCODING 40
SWIDTH 310 0
DWIDTH 4 0
BBX 4 11 1 -2
BITMAP
10
20
40
40
80
80
80
80
80
80
40
ENDCHAR

STARTCHAR parenright
ENCODING 41
SWIDTH 310 0
DWIDTH 4 0
BBX 4 11 0 -2
BITMAP
20
10
10
10
10
10
30
20
20
40
80
ENDCHAR

STARTCHAR asterisk
ENCODING 42
SWIDTH 458 0
DWIDTH 5 0
BBX 4 5 2 4
BITMAP
20
20
F0
60
A0
ENDCHAR

STARTCHAR plus
ENCODING 43
SWIDTH 608 0
DWIDTH 7 0
BBX 7 7 1 0
BITMAP
10
10
10
FE
10
10
10
ENDCHAR

STARTCHAR comma
ENCODING 44
SWIDTH 265 0
DWIDTH 3 0
BBX 2 4 0 -3
BITMAP
C0
40
40
80
ENDCHAR

STARTCHAR minus
ENCODING 45
SWIDTH 608 0
DWIDTH 7 0
BBX 7 1 1 3
BITMAP
FE
ENDCHAR

STARTCHAR period
ENCODING 46
SWIDTH 265 0
DWIDTH 3 0
BBX 2 1 1 0
BITMAP
C0
ENDCHAR

STARTCHAR slash
ENCODING 47
SWIDTH 458 0
DWIDTH 5 0
BBX 8 11 0 -2
BITMAP
03
02
04
0C
08
10
10
20
60
40
80
ENDCHAR

STARTCHAR zero
ENCODING 48
SWIDTH 608 0
DWIDTH 7 0
BBX 6 9 1 0
BITMAP
38
64
44
C4
84
84
8C
C8
70
ENDCHAR

STARTCHAR one
ENCODING 49
SWIDTH 608 0
DWIDTH 7 0
BBX 5 9 1 0
BITMAP
38
10
10
10
30
20
20
20
F0
ENDCHAR

STARTCHAR two
ENCODING 50
SWIDTH 608 0
DWIDTH 7 0
BBX 7 9 1 0
BITMAP
3C
26
26
04
0C
30
60
40
F8
ENDCHAR

STARTCHAR three
ENCODING 51
SWIDTH 608 0
DWIDTH 7 0
BBX 6 9 1 0
BITMAP
3C
24
04
08
38
0C
08
88
F0
ENDCHAR

STARTCHAR four
ENCODING 52
SWIDTH 608 0
DWIDTH 7 0
BBX 6 9 1 0
BITMAP
04
0C
14
2C
68
C8
FC
08
3C
ENDCHAR

STARTCHAR five
ENCODING 53
SWIDTH 608 0
DWIDTH 7 0
BBX 6 9 1 0
BITMAP
3C
40
40
40
78
08
08
88
F0
ENDCHAR

STARTCHAR six
ENCODING 54
SWIDTH 608 0
DWIDTH 7 0
BBX 6 9 1 0
BITMAP
1C
24
40
C0
F8
C4
84
88
70
ENDCHAR

STARTCHAR seven
ENCODING 55
SWIDTH 608 0
DWIDTH 7 0
BBX 7 9 2 0
BITMAP
7E
04
08
18
30
60
40
C0
80
ENDCHAR

STARTCHAR eight
ENCODING 56
SWIDTH 608 0
DWIDTH 7 0
BBX 6 9 1 0
BITMAP
3C
24
44
2C
38
CC
84
88
70
ENDCHAR

STARTCHAR nine
ENCODING 57
SWIDTH 608 0
DWIDTH 7 0
BBX 6 9 1 0
BITMAP
3C
64
44
44
44
7C
0C
98
F0
ENDCHAR

STARTCHAR colon
ENCODING 58
SWIDTH 265 0
DWIDTH 3 0
BBX 3 6 1 0
BITMAP
60
00
00
00
00
C0
ENDCHAR

STARTCHAR semicolon
ENCODING 59
SWIDTH 265 0
DWIDTH 3 0
BBX 3 9 0 -3
BITMAP
60
00
00
00
00
C0
40
40
80
ENDCHAR

STARTCHAR less
ENCODING 60
SWIDTH 608 0
DWIDTH 7 0
BBX 8 6 1 0
BITMAP
03
1C
E0
60
18
04
ENDCHAR

STARTCHAR equal
ENCODING 61
SWIDTH 608 0
DWIDTH 7 0
BBX 7 3 1 2
BITMAP
FE
00
FE
ENDCHAR

STARTCHAR greater
ENCODING 62
SWIDTH 608 0
DWIDTH 7 0
BBX 8 6 0 0
BITMAP
60
18
06
0F
30
C0
ENDCHAR

STARTCHAR question
ENCODING 63
SWIDTH 471 0
DWIDTH 6 0
BBX 5 9 2 0
BITMAP
70
98
98
10
20
40
C0
00
80
ENDCHAR

STARTCHAR at
ENCODING 64
SWIDTH 861 0
DWIDTH 10 0
BBX 9 9 1 0
BITMAP
1E00
2180
4080
8E80
9280
A480
AC80
7F00
3C00
ENDCHAR

STARTCHAR A
ENCODING 65
SWIDTH 747 0
DWIDTH 9 0
BBX 9 9 0 0
BITMAP
0200
0600
0A00
0A00
1200
3300
3F00
4100
C380
ENDCHAR

STARTCHAR B
ENCODING 66
SWIDTH 606 0
DWIDTH 7 0
BBX 7 9 0 0
BITMAP
3E
12
32
24
3C
26
62
46
FC
ENDCHAR

STARTCHAR C
ENCODING 67
SWIDTH 714 0
DWIDTH 9 0
BBX 8 9 1 0
BITMAP
1F
31
41
C0
80
80
80
C6
7C
ENDCHAR

STARTCHAR D
ENCODING 68
SWIDTH 770 0
DWIDTH 9 0
BBX 9 9 0 0
BITMAP
3F00
1180
3080
2080
2080
2080
6100
6300
FC00
ENDCHAR

STARTCHAR E
ENCODING 69
SWIDTH 569 0
DWIDTH 7 0
BBX 8 9 0 0
BITMAP
3F
12
30
24
3C
24
60
66
FC
ENDCHAR

STARTCHAR F
ENCODING 70
SWIDTH 551 0
DWIDTH 7 0
BBX 8 9 0 0
BITMAP
3F
12
30
24
3C
24
60
60
F0
ENDCHAR

STARTCHAR G
ENCODING 71
SWIDTH 756 0
DWIDTH 9 0
BBX 8 9 1 0
BITMAP
1F
31
40
C0
80
80
87
C6
7C
ENDCHAR

STARTCHAR H
ENCODING 72
SWIDTH 776 0
DWIDTH 9 0
BBX 10 9 0 0
BITMAP
39C0
1080
3080
2080
3F80
2100
6100
6100
E780
ENDCHAR

STARTCHAR I
ENCODING 73
SWIDTH 325 0
DWIDTH 4 0
BBX 5 9 0 0
BITMAP
38
10
30
20
20
20
60
60
E0
ENDCHAR

STARTCHAR J
ENCODING 74
SWIDTH 422 0
DWIDTH 5 0
BBX 7 11 0 -2
BITMAP
1E
0C
08
08
08
18
18
10
10
B0
E0
ENDCHAR

STARTCHAR K
ENCODING 75
SWIDTH 698 0
DWIDTH 8 0
BBX 9 9 0 0
BITMAP
3B80
1100
3600
2400
2800
3800
6400
6600
E700
ENDCHAR

STARTCHAR L
ENCODING 76
SWIDTH 572 0
DWIDTH 7 0
BBX 7 9 0 0
BITMAP
38
10
30
20
20
20
60
62
FC
ENDCHAR

STARTCHAR M
ENCODING 77
SWIDTH 865 0
DWIDTH 10 0
BBX 12 9 0 0
BITMAP
3070
10C0
30C0
2940
2A40
2A80
4C80
4880
E1C0
ENDCHAR

STARTCHAR N
ENCODING 78
SWIDTH 762 0
DWIDTH 9 0
BBX 10 9 0 0
BITMAP
30C0
1080
2880
2880
4500
4500
4300
4300
E100
ENDCHAR

STARTCHAR O
ENCODING 79
SWIDTH 783 0
DWIDTH 9 0
BBX 8 9 1 0
BITMAP
1E
23
41
C1
81
81
82
C6
78
ENDCHAR

STARTCHAR P
ENCODING 80
SWIDTH 579 0
DWIDTH 7 0
BBX 8 9 0 0
BITMAP
3E
13
33
22
26
3C
60
60
F0
ENDCHAR

STARTCHAR Q
ENCODING 81
SWIDTH 788 0
DWIDTH 9 0
BBX 10 12 1 -3
BITMAP
1E00
2300
4100
C100
8100
8100
8300
C600
7C00
0800
0C00
03C0
ENDCHAR

STARTCHAR R
ENCODING 82
SWIDTH 686 0
DWIDTH 8 0
BBX 8 9 0 0
BITMAP
3C
12
32
22
3C
24
44
42
C3
ENDCHAR

STARTCHAR S
ENCODING 83
SWIDTH 549 0
DWIDTH 7 0
BBX 7 9 1 0
BITMAP
1E
22
22
20
10
08
88
88
F0
ENDCHAR

STARTCHAR T
ENCODING 84
SWIDTH 663 0
DWIDTH 8 0
BBX 8 9 2 0
BITMAP
FF
91
10
10
10
30
20
20
F0
ENDCHAR

STARTCHAR U
ENCODING 85
SWIDTH 727 0
DWIDTH 9 0
BBX 9 9 2 0
BITMAP
F380
4200
4200
4200
8200
8200
8400
C400
7800
ENDCHAR

STARTCHAR V
ENCODING 86
SWIDTH 656 0
DWIDTH 8 0
BBX 9 9 1 0
BITMAP
E380
4100
4200
6200
2400
2800
2800
3000
3000
ENDCHAR

STARTCHAR W
ENCODING 87
SWIDTH 878 0
DWIDTH 11 0
BBX 11 9 1 0
BITMAP
E460
4440
4C40
4C80
5480
5500
6700
6600
4200
ENDCHAR

STARTCHAR X
ENCODING 88
SWIDTH 624 0
DWIDTH 7 0
BBX 10 9 0 0
BITMAP
39C0
1080
0900
0A00
0C00
1400
2600
4200
E700
ENDCHAR

STARTCHAR Y
ENCODING 89
SWIDTH 663 0
DWIDTH 8 0
BBX 8 9 2 0
BITMAP
E3
42
24
28
30
30
20
20
70
ENDCHAR

STARTCHAR Z
ENCODING 90
SWIDTH 633 0
DWIDTH 8 0
BBX 8 9 1 0
BITMAP
3F
62
04
08
18
30
20
46
FC
ENDCHAR

STARTCHAR bracketleft
ENCODING 91
SWIDTH 310 0
DWIDTH 4 0
BBX 5 11 1 -2
BITMAP
38
20
20
60
40
40
40
40
80
80
C0
ENDCHAR

STARTCHAR backslash
ENCODING 92
SWIDTH 458 0
DWIDTH 5 0
BBX 3 11 2 -2
BITMAP
80
80
80
40
40
40
40
20
20
20
20
ENDCHAR

STARTCHAR bracketright
ENCODING 93
SWIDTH 310 0
DWIDTH 4 0
BBX 5 11 0 -2
BITMAP
38
10
10
10
10
20
20
20
20
60
C0
ENDCHAR

STARTCHAR asciicircum
ENCODING 94
SWIDTH 608 0
DWIDTH 7 0
BBX 7 8 0 2
BITMAP
08
08
0C
14
24
64
42
82
ENDCHAR

STARTCHAR underscore
ENCODING 95
SWIDTH 500 0
DWIDTH 6 0
BBX 5 1 1 0
BITMAP
F8
ENDCHAR

STARTCHAR quoteleft
ENCODING 96
SWIDTH 265 0
DWIDTH 3 0
BBX 2 4 2 5
BITMAP
40
80
C0
C0
ENDCHAR

STARTCHAR a
ENCODING 97
SWIDTH 608 0
DWIDTH 7 0
BBX 6 6 1 0
BITMAP
3C
44
4C
8C
98
EC
ENDCHAR

STARTCHAR b
ENCODING 98
SWIDTH 596 0
DWIDTH 7 0
BBX 6 9 1 0
BITMAP
60
20
60
5C
74
64
44
88
F0
ENDCHAR

STARTCHAR c
ENCODING 99
SWIDTH 487 0
DWIDTH 6 0
BBX 5 6 1 0
BITMAP
38
48
80
80
98
70
ENDCHAR

STARTCHAR d
ENCODING 100
SWIDTH 608 0
DWIDTH 7 0
BBX 7 9 1 0
BITMAP
06
02
04
3C
44
4C
8C
98
EC
ENDCHAR

STARTCHAR e
ENCODING 101
SWIDTH 518 0
DWIDTH 6 0
BBX 5 6 1 0
BITMAP
38
48
88
F0
88
70
ENDCHAR

STARTCHAR f
ENCODING 102
SWIDTH 380 0
DWIDTH 5 0
BBX 6 12 1 -3
BITMAP
1C
24
20
78
20
60
40
40
40
40
80
80
ENDCHAR

STARTCHAR g
ENCODING 103
SWIDTH 602 0
DWIDTH 7 0
BBX 7 9 1 -3
BITMAP
1E
22
44
4C
DC
64
08
88
F0
ENDCHAR

STARTCHAR h
ENCODING 104
SWIDTH 631 0
DWIDTH 8 0
BBX 6 9 1 0
BITMAP
60
20
60
4C
74
64
44
88
8C
ENDCHAR

STARTCHAR i
ENCODING 105
SWIDTH 289 0
DWIDTH 3 0
BBX 3 9 1 0
BITMAP
20
00
00
C0
40
40
40
80
C0
ENDCHAR

STARTCHAR j
ENCODING 106
SWIDTH 343 0
DWIDTH 4 0
BBX 6 12 0 -3
BITMAP
0C
00
00
18
08
08
08
18
10
10
90
E0
ENDCHAR

STARTCHAR k
ENCODING 107
SWIDTH 560 0
DWIDTH 7 0
BBX 6 9 1 0
BITMAP
60
20
60
44
48
50
60
90
8C
ENDCHAR

STARTCHAR l
ENCODING 108
SWIDTH 289 0
DWIDTH 3 0
BBX 3 9 1 0
BITMAP
60
20
40
40
40
40
40
80
C0
ENDCHAR

STARTCHAR m
ENCODING 109
SWIDTH 944 0
DWIDTH 11 0
BBX 10 6 1 0
BITMAP
DDC0
7740
6640
4C80
C880
88C0
ENDCHAR

STARTCHAR n
ENCODING 110
SWIDTH 631 0
DWIDTH 8 0
BBX 6 6 1 0
BITMAP
CC
74
64
44
88
8C
ENDCHAR

STARTCHAR o
ENCODING 111
SWIDTH 560 0
DWIDTH 7 0
BBX 6 6 1 0
BITMAP
38
44
C4
8C
88
70
ENDCHAR

STARTCHAR p
ENCODING 112
SWIDTH 608 0
DWIDTH 7 0
BBX 7 9 1 -3
BITMAP
6E
72
62
44
44
78
40
80
80
ENDCHAR

STARTCHAR q
ENCODING 113
SWIDTH 599 0
DWIDTH 7 0
BBX 6 9 1 -3
BITMAP
3C
44
4C
8C
9C
E8
08
08
08
ENDCHAR

STARTCHAR r
ENCODING 114
SWIDTH 470 0
DWIDTH 6 0
BBX 5 6 1 0
BITMAP
D8
70
60
40
80
80
ENDCHAR

STARTCHAR s
ENCODING 115
SWIDTH 440 0
DWIDTH 5 0
BBX 5 6 1 0
BITMAP
38
48
20
90
90
F0
ENDCHAR

STARTCHAR t
ENCODING 116
SWIDTH 355 0
DWIDTH 4 0
BBX 4 7 1 0
BITMAP
60
F0
40
40
80
80
E0
ENDCHAR

STARTCHAR u
ENCODING 117
SWIDTH 630 0
DWIDTH 8 0
BBX 6 6 1 0
BITMAP
CC
44
4C
CC
98
EC
ENDCHAR

STARTCHAR v
ENCODING 118
SWIDTH 558 0
DWIDTH 7 0
BBX 7 6 1 0
BITMAP
C6
62
24
28
30
20
ENDCHAR

STARTCHAR w
ENCODING 119
SWIDTH 805 0
DWIDTH 10 0
BBX 9 6 1 0
BITMAP
C480
4C80
2D80
3D00
3600
2400
ENDCHAR

STARTCHAR x
ENCODING 120
SWIDTH 510 0
DWIDTH 6 0
BBX 6 6 1 0
BITMAP
C4
2C
30
30
C8
8C
ENDCHAR

STARTCHAR y
ENCODING 121
SWIDTH 558 0
DWIDTH 7 0
BBX 8 9 1 -3
BITMAP
31
11
19
1A
0C
0C
08
30
E0
ENDCHAR

STARTCHAR z
ENCODING 122
SWIDTH 536 0
DWIDTH 6 0
BBX 6 6 1 0
BITMAP
7C
48
10
20
44
F8
ENDCHAR

STARTCHAR braceleft
ENCODING 123
SWIDTH 337 0
DWIDTH 4 0
BBX 4 11 1 -2
BITMAP
30
20
20
20
60
C0
40
40
80
80
C0
ENDCHAR

STARTCHAR bar
ENCODING 124
SWIDTH 241 0
DWIDTH 3 0
BBX 3 11 1 -2
BITMAP
20
20
20
40
40
40
40
40
80
80
80
ENDCHAR

STARTCHAR braceright
ENCODING 125
SWIDTH 337 0
DWIDTH 4 0
BBX 4 11 1 -2
BITMAP
30
10
10
20
20
30
20
40
40
40
C0
ENDCHAR

STARTCHAR asciitilde
ENCODING 126
SWIDTH 608 0
DWIDTH 7 0
BBX 8 2 1 2
BITMAP
73
9E
ENDCHAR

STARTCHAR exclamdown
ENCODING 161
SWIDTH 265 0
DWIDTH 3 0
BBX 3 9 1 -3
BITMAP
20
00
40
40
40
40
C0
80
80
ENDCHAR

STARTCHAR cent
ENCODING 162
SWIDTH 608 0
DWIDTH 7 0
BBX 6 9 2 0
BITMAP
08
3C
58
D0
90
90
A8
70
40
ENDCHAR

STARTCHAR sterling
ENCODING 163
SWIDTH 608 0
DWIDTH 7 0
BBX 7 9 1 0
BITMAP
0E
14
10
20
20
78
20
40
F8
ENDCHAR

STARTCHAR currency
ENCODING 164
SWIDTH 608 0
DWIDTH 7 0
BBX 8 6 0 1
BITMAP
63
3E
42
44
7C
82
ENDCHAR

STARTCHAR yen
ENCODING 165
SWIDTH 608 0
DWIDTH 7 0
BBX 8 9 1 0
BITMAP
E3
42
24
28
78
20
F8
20
70
ENDCHAR

STARTCHAR brokenbar
ENCODING 166
SWIDTH 241 0
DWIDTH 3 0
BBX 3 11 1 -2
BITMAP
20
20
20
40
40
00
40
40
80
80
80
ENDCHAR

STARTCHAR section
ENCODING 167
SWIDTH 608 0
DWIDTH 7 0
BBX 7 12 1 -3
BITMAP
1E
24
20
20
58
4C
44
38
08
08
88
F0
ENDCHAR

STARTCHAR dieresis
ENCODING 168
SWIDTH 560 0
DWIDTH 7 0
BBX 4 1 3 8
BITMAP
B0
ENDCHAR

STARTCHAR copyright
ENCODING 169
SWIDTH 843 0
DWIDTH 10 0
BBX 9 9 1 0
BITMAP
3E00
4100
8080
9E80
9280
A080
A080
5D00
3E00
ENDCHAR

STARTCHAR ordfeminine
ENCODING 170
SWIDTH 458 0
DWIDTH 5 0
BBX 5 6 2 3
BITMAP
38
50
90
B0
B0
D8
ENDCHAR

STARTCHAR guillemotleft
ENCODING 171
SWIDTH 525 0
DWIDTH 6 0
BBX 6 5 1 0
BITMAP
2C
F0
50
50
08
ENDCHAR

STARTCHAR logicalnot
ENCODING 172
SWIDTH 608 0
DWIDTH 7 0
BBX 7 3 1 2
BITMAP
FE
02
02
ENDCHAR

STARTCHAR hyphen
ENCODING 173
SWIDTH 313 0
DWIDTH 4 0
BBX 3 1 1 3
BITMAP
E0
ENDCHAR

STARTCHAR registered
ENCODING 174
SWIDTH 608 0
DWIDTH 7 0
BBX 5 6 2 3
BITMAP
70
B8
E8
D8
98
70
ENDCHAR

STARTCHAR macron
ENCODING 175
SWIDTH 560 0
DWIDTH 7 0
BBX 3 1 3 7
BITMAP
E0
ENDCHAR

STARTCHAR degree
ENCODING 176
SWIDTH 277 0
DWIDTH 3 0
BBX 3 3 2 6
BITMAP
E0
A0
E0
ENDCHAR

STARTCHAR plusminus
ENCODING 177
SWIDTH 608 0
DWIDTH 7 0
BBX 8 6 0 0
BITMAP
08
08
7F
10
00
FE
ENDCHAR

STARTCHAR twosuperior
ENCODING 178
SWIDTH 365 0
DWIDTH 4 0
BBX 4 5 -6 4
BITMAP
70
50
20
40
E0
ENDCHAR

STARTCHAR threesuperior
ENCODING 179
SWIDTH 365 0
DWIDTH 4 0
BBX 4 5 -6 4
BITMAP
60
30
60
20
E0
ENDCHAR

STARTCHAR acute
ENCODING 180
SWIDTH 560 0
DWIDTH 7 0
BBX 3 2 4 7
BITMAP
60
80
ENDCHAR

STARTCHAR mu
ENCODING 181
SWIDTH 663 0
DWIDTH 8 0
BBX 7 8 1 -2
BITMAP
E6
44
44
4C
5C
76
80
80
ENDCHAR

STARTCHAR paragraph
ENCODING 182
SWIDTH 608 0
DWIDTH 7 0
BBX 5 11 2 -2
BITMAP
78
E8
E8
68
28
28
50
50
50
50
50
ENDCHAR

STARTCHAR periodcentered
ENCODING 183
SWIDTH 608 0
DWIDTH 7 0
BBX 1 1 4 3
BITMAP
80
ENDCHAR

STARTCHAR cedilla
ENCODING 184
SWIDTH 560 0
DWIDTH 7 0
BBX 2 3 2 -3
BITMAP
40
40
C0
ENDCHAR

STARTCHAR onesuperior
ENCODING 185
SWIDTH 365 0
DWIDTH 4 0
BBX 3 5 -6 4
BITMAP
60
40
40
40
E0
ENDCHAR

STARTCHAR ordmasculine
ENCODING 186
SWIDTH 458 0
DWIDTH 5 0
BBX 5 6 2 3
BITMAP
30
58
88
90
90
E0
ENDCHAR

STARTCHAR guillemotright
ENCODING 187
SWIDTH 525 0
DWIDTH 6 0
BBX 6 4 1 1
BITMAP
48
28
7C
B0
ENDCHAR

STARTCHAR onequarter
ENCODING 188
SWIDTH 766 0
DWIDTH 9 0
BBX 9 9 2 0
BITMAP
6080
4100
4200
4400
E900
1300
2500
4780
C100
ENDCHAR

STARTCHAR onehalf
ENCODING 189
SWIDTH 766 0
DWIDTH 9 0
BBX 9 9 2 0
BITMAP
6080
4100
4200
4400
EB80
1280
2100
4200
C700
ENDCHAR

STARTCHAR threequarters
ENCODING 190
SWIDTH 766 0
DWIDTH 9 0
BBX 9 9 2 0
BITMAP
6080
2100
6200
2400
E900
1300
2500
4780
C100
ENDCHAR

STARTCHAR questiondown
ENCODING 191
SWIDTH 471 0
DWIDTH 6 0
BBX 5 9 0 -3
BITMAP
18
00
10
10
20
C0
88
88
70
ENDCHAR

STARTCHAR Agrave
ENCODING 192
SWIDTH 747 0
DWIDTH 9 0
BBX 9 12 0 0
BITMAP
0600
0200
0000
0200
0600
0A00
0A00
1200
3300
3F00
4100
C380
ENDCHAR

STARTCHAR Aacute
ENCODING 193
SWIDTH 747 0
DWIDTH 9 0
BBX 9 12 0 0
BITMAP
0180
0200
0000
0200
0600
0A00
0A00
1200
3300
3F00
4100
C380
ENDCHAR

STARTCHAR Acircumflex
ENCODING 194
SWIDTH 747 0
DWIDTH 9 0
BBX 9 12 0 0
BITMAP
0300
0480
0000
0200
0600
0A00
0A00
1200
3300
3F00
4100
C380
ENDCHAR

STARTCHAR Atilde
ENCODING 195
SWIDTH 747 0
DWIDTH 9 0
BBX 9 12 0 0
BITMAP
0680
0900
0000
0200
0600
0A00
0A00
1200
3300
3F00
4100
C380
ENDCHAR

STARTCHAR Adieresis
ENCODING 196
SWIDTH 747 0
DWIDTH 9 0
BBX 9 11 0 0
BITMAP
0580
0000
0200
0600
0A00
0A00
1200
3300
3F00
4100
C380
ENDCHAR

STARTCHAR Aring
ENCODING 197
SWIDTH 747 0
DWIDTH 9 0
BBX 9 12 0 0
BITMAP
0700
0500
0700
0200
0600
0A00
0A00
1200
3300
3F00
4100
C380
ENDCHAR

STARTCHAR AE
ENCODING 198
SWIDTH 907 0
DWIDTH 11 0
BBX 12 9 0 0
BITMAP
03F0
0310
0500
0920
1BE0
3240
3E00
4220
CFE0
ENDCHAR

STARTCHAR Ccedilla
ENCODING 199
SWIDTH 714 0
DWIDTH 9 0
BBX 8 12 1 -3
BITMAP
1F
31
41
C0
80
80
80
C6
7C
10
10
30
ENDCHAR

STARTCHAR Egrave
ENCODING 200
SWIDTH 569 0
DWIDTH 7 0
BBX 8 12 0 0
BITMAP
0C
04
00
3F
12
30
24
3C
24
60
66
FC
ENDCHAR

STARTCHAR Eacute
ENCODING 201
SWIDTH 569 0
DWIDTH 7 0
BBX 8 12 0 0
BITMAP
06
08
00
3F
12
30
24
3C
24
60
66
FC
ENDCHAR

STARTCHAR Ecircumflex
ENCODING 202
SWIDTH 569 0
DWIDTH 7 0
BBX 8 12 0 0
BITMAP
0C
12
00
3F
12
30
24
3C
24
60
66
FC
ENDCHAR

STARTCHAR Edieresis
ENCODING 203
SWIDTH 569 0
DWIDTH 7 0
BBX 8 11 0 0
BITMAP
16
00
3F
12
30
24
3C
24
60
66
FC
ENDCHAR

STARTCHAR Igrave
ENCODING 204
SWIDTH 325 0
DWIDTH 4 0
BBX 5 12 0 0
BITMAP
30
10
00
38
10
30
20
20
20
60
60
E0
ENDCHAR

STARTCHAR Iacute
ENCODING 205
SWIDTH 325 0
DWIDTH 4 0
BBX 6 12 0 0
BITMAP
0C
10
00
38
10
30
20
20
20
60
60
E0
ENDCHAR

STARTCHAR Icircumflex
ENCODING 206
SWIDTH 325 0
DWIDTH 4 0
BBX 6 12 0 0
BITMAP
18
24
00
38
10
30
20
20
20
60
60
E0
ENDCHAR

STARTCHAR Idieresis
ENCODING 207
SWIDTH 325 0
DWIDTH 4 0
BBX 6 11 0 0
BITMAP
2C
00
38
10
30
20
20
20
60
60
E0
ENDCHAR

STARTCHAR Eth
ENCODING 208
SWIDTH 770 0
DWIDTH 9 0
BBX 9 9 0 0
BITMAP
3F00
1180
2080
2080
2080
7880
2100
6300
FC00
ENDCHAR

STARTCHAR Ntilde
ENCODING 209
SWIDTH 762 0
DWIDTH 9 0
BBX 10 12 0 0
BITMAP
0680
0900
0000
30C0
1080
2880
2880
4500
4500
4300
4300
E100
ENDCHAR

STARTCHAR Ograve
ENCODING 210
SWIDTH 783 0
DWIDTH 9 0
BBX 8 12 1 0
BITMAP
0C
04
00
1E
23
41
C1
81
81
82
C6
78
ENDCHAR

STARTCHAR Oacute
ENCODING 211
SWIDTH 783 0
DWIDTH 9 0
BBX 8 12 1 0
BITMAP
06
08
00
1E
23
41
C1
81
81
82
C6
78
ENDCHAR

STARTCHAR Ocircumflex
ENCODING 212
SWIDTH 783 0
DWIDTH 9 0
BBX 8 12 1 0
BITMAP
0C
12
00
1E
23
41
C1
81
81
82
C6
78
ENDCHAR

STARTCHAR Otilde
ENCODING 213
SWIDTH 783 0
DWIDTH 9 0
BBX 8 12 1 0
BITMAP
0D
12
00
1E
23
41
C1
81
81
82
C6
78
ENDCHAR

STARTCHAR Odieresis
ENCODING 214
SWIDTH 783 0
DWIDTH 9 0
BBX 8 11 1 0
BITMAP
0B
00
1E
23
41
C1
81
81
82
C6
78
ENDCHAR

STARTCHAR multiply
ENCODING 215
SWIDTH 608 0
DWIDTH 7 0
BBX 8 7 0 0
BITMAP
41
22
1C
18
38
44
82
ENDCHAR

STARTCHAR Oslash
ENCODING 216
SWIDTH 783 0
DWIDTH 9 0
BBX 10 9 2 0
BITMAP
0FC0
1180
2380
6680
4C80
5880
7100
6300
FC00
ENDCHAR

STARTCHAR Ugrave
ENCODING 217
SWIDTH 727 0
DWIDTH 9 0
BBX 9 12 2 0
BITMAP
1800
0800
0000
F380
4200
4200
4200
8200
8200
8400
C400
7800
ENDCHAR

STARTCHAR Uacute
ENCODING 218
SWIDTH 727 0
DWIDTH 9 0
BBX 9 12 2 0
BITMAP
0600
0800
0000
F380
4200
4200
4200
8200
8200
8400
C400
7800
ENDCHAR

STARTCHAR Ucircumflex
ENCODING 219
SWIDTH 727 0
DWIDTH 9 0
BBX 9 12 2 0
BITMAP
0C00
1200
0000
F380
4200
4200
4200
8200
8200
8400
C400
7800
ENDCHAR

STARTCHAR Udieresis
ENCODING 220
SWIDTH 727 0
DWIDTH 9 0
BBX 9 11 2 0
BITMAP
1600
0000
F380
4200
4200
4200
8200
8200
8400
C400
7800
ENDCHAR

STARTCHAR Yacute
ENCODING 221
SWIDTH 663 0
DWIDTH 8 0
BBX 8 12 2 0
BITMAP
0C
10
00
E3
42
24
28
30
30
20
20
70
ENDCHAR

STARTCHAR Thorn
ENCODING 222
SWIDTH 579 0
DWIDTH 7 0
BBX 7 9 0 0
BITMAP
38
10
3E
32
22
22
66
78
E0
ENDCHAR

STARTCHAR germandbls
ENCODING 223
SWIDTH 603 0
DWIDTH 7 0
BBX 6 12 1 -3
BITMAP
1C
24
2C
38
70
4C
44
54
5C
C0
80
80
ENDCHAR

STARTCHAR agrave
ENCODING 224
SWIDTH 608 0
DWIDTH 7 0
BBX 6 9 1 0
BITMAP
18
08
00
3C
44
4C
8C
98
EC
ENDCHAR

STARTCHAR aacute
ENCODING 225
SWIDTH 608 0
DWIDTH 7 0
BBX 7 9 1 0
BITMAP
06
08
00
3C
44
4C
8C
98
EC
ENDCHAR

STARTCHAR acircumflex
ENCODING 226
SWIDTH 608 0
DWIDTH 7 0
BBX 7 9 1 0
BITMAP
0C
12
00
3C
44
4C
8C
98
EC
ENDCHAR

STARTCHAR atilde
ENCODING 227
SWIDTH 608 0
DWIDTH 7 0
BBX 7 9 1 0
BITMAP
1A
24
00
3C
44
4C
8C
98
EC
ENDCHAR

STARTCHAR adieresis
ENCODING 228
SWIDTH 608 0
DWIDTH 7 0
BBX 7 8 1 0
BITMAP
16
00
3C
44
4C
8C
98
EC
ENDCHAR

STARTCHAR aring
ENCODING 229
SWIDTH 608 0
DWIDTH 7 0
BBX 6 9 1 0
BITMAP
1C
14
1C
3C
44
4C
8C
98
EC
ENDCHAR

STARTCHAR ae
ENCODING 230
SWIDTH 881 0
DWIDTH 11 0
BBX 10 6 1 0
BITMAP
3F80
44C0
4480
8F00
94C0
E780
ENDCHAR

STARTCHAR ccedilla
ENCODING 231
SWIDTH 487 0
DWIDTH 6 0
BBX 5 9 1 -3
BITMAP
38
48
80
80
98
70
20
20
60
ENDCHAR

STARTCHAR egrave
ENCODING 232
SWIDTH 518 0
DWIDTH 6 0
BBX 5 9 1 0
BITMAP
18
08
00
38
48
88
F0
88
70
ENDCHAR

STARTCHAR eacute
ENCODING 233
SWIDTH 518 0
DWIDTH 6 0
BBX 6 9 1 0
BITMAP
0C
10
00
38
48
88
F0
88
70
ENDCHAR

STARTCHAR ecircumflex
ENCODING 234
SWIDTH 518 0
DWIDTH 6 0
BBX 6 9 1 0
BITMAP
18
24
00
38
48
88
F0
88
70
ENDCHAR

STARTCHAR edieresis
ENCODING 235
SWIDTH 518 0
DWIDTH 6 0
BBX 6 8 1 0
BITMAP
2C
00
38
48
88
F0
88
70
ENDCHAR

STARTCHAR igrave
ENCODING 236
SWIDTH 289 0
DWIDTH 3 0
BBX 3 9 1 0
BITMAP
60
20
00
C0
40
40
40
80
C0
ENDCHAR

STARTCHAR iacute
ENCODING 237
SWIDTH 289 0
DWIDTH 3 0
BBX 4 9 1 0
BITMAP
30
40
00
C0
40
40
40
80
C0
ENDCHAR

STARTCHAR icircumflex
ENCODING 238
SWIDTH 289 0
DWIDTH 3 0
BBX 4 9 1 0
BITMAP
60
90
00
C0
40
40
40
80
C0
ENDCHAR

STARTCHAR idieresis
ENCODING 239
SWIDTH 289 0
DWIDTH 3 0
BBX 5 8 1 0
BITMAP
58
00
C0
40
40
40
80
C0
ENDCHAR

STARTCHAR eth
ENCODING 240
SWIDTH 562 0
DWIDTH 7 0
BBX 6 9 1 0
BITMAP
64
18
18
2C
3C
44
84
88
F0
ENDCHAR

STARTCHAR ntilde
ENCODING 241
SWIDTH 631 0
DWIDTH 8 0
BBX 7 9 1 0
BITMAP
1A
24
00
CC
74
64
44
88
8C
ENDCHAR

STARTCHAR ograve
ENCODING 242
SWIDTH 560 0
DWIDTH 7 0
BBX 6 9 1 0
BITMAP
18
08
00
38
44
C4
8C
88
70
ENDCHAR

STARTCHAR oacute
ENCODING 243
SWIDTH 560 0
DWIDTH 7 0
BBX 6 9 1 0
BITMAP
0C
10
00
38
44
C4
8C
88
70
ENDCHAR

STARTCHAR ocircumflex
ENCODING 244
SWIDTH 560 0
DWIDTH 7 0
BBX 6 9 1 0
BITMAP
18
24
00
38
44
C4
8C
88
70
ENDCHAR

STARTCHAR otilde
ENCODING 245
SWIDTH 560 0
DWIDTH 7 0
BBX 6 9 1 0
BITMAP
34
48
00
38
44
C4
8C
88
70
ENDCHAR

STARTCHAR odieresis
ENCODING 246
SWIDTH 560 0
DWIDTH 7 0
BBX 6 8 1 0
BITMAP
2C
00
38
44
C4
8C
88
70
ENDCHAR

STARTCHAR divide
ENCODING 247
SWIDTH 608 0
DWIDTH 7 0
BBX 7 6 1 0
BITMAP
18
00
00
FE
00
30
ENDCHAR

STARTCHAR oslash
ENCODING 248
SWIDTH 560 0
DWIDTH 7 0
BBX 7 6 1 0
BITMAP
3E
4C
DC
BC
E8
F0
ENDCHAR

STARTCHAR ugrave
ENCODING 249
SWIDTH 630 0
DWIDTH 8 0
BBX 6 9 1 0
BITMAP
18
08
00
CC
44
4C
CC
98
EC
ENDCHAR

STARTCHAR uacute
ENCODING 250
SWIDTH 630 0
DWIDTH 8 0
BBX 7 9 1 0
BITMAP
06
08
00
CC
44
4C
CC
98
EC
ENDCHAR

STARTCHAR ucircumflex
ENCODING 251
SWIDTH 630 0
DWIDTH 8 0
BBX 6 9 1 0
BITMAP
18
24
00
CC
44
4C
CC
98
EC
ENDCHAR

STARTCHAR udieresis
ENCODING 252
SWIDTH 630 0
DWIDTH 8 0
BBX 7 8 1 0
BITMAP
16
00
CC
44
4C
CC
98
EC
ENDCHAR

STARTCHAR yacute
ENCODING 253
SWIDTH 558 0
DWIDTH 7 0
BBX 8 12 1 -3
BITMAP
03
04
00
31
11
19
1A
0C
0C
08
30
E0
ENDCHAR

STARTCHAR thorn
ENCODING 254
SWIDTH 608 0
DWIDTH 7 0
BBX 7 11 1 -3
BITMAP
60
20
2E
72
62
44
44
78
C0
80
80
ENDCHAR

STARTCHAR ydieresis
ENCODING 255
SWIDTH 558 0
DWIDTH 7 0
BBX 9 11 1 -3
BITMAP
0580
0000
3100
1100
1900
1A00
0C00
0C00
0800
3000
E000
ENDCHAR
ENDFONT
